<svg id="Layer_1" data-name="Layer 1" xmlns="http://www.w3.org/2000/svg" viewBox="0 0 641.42 94.22"><defs><style>.cls-1{fill:#231f20;}</style></defs><title>JyskeBank-logo-sort</title><path class="cls-1" d="M421.67,23.65a1.7,1.7,0,0,1,1.7-1.7h15.57A22.3,22.3,0,0,1,446,23a14.88,14.88,0,0,1,5.09,2.79,11.67,11.67,0,0,1,3.09,4.15,12.49,12.49,0,0,1,1.06,5.17,10.22,10.22,0,0,1-1,4.6A12.59,12.59,0,0,1,452,43a9.79,9.79,0,0,1-2.64,2,5.18,5.18,0,0,1-2.08.64,14.09,14.09,0,0,1,3.17.83,11.06,11.06,0,0,1,3.43,2.12,12,12,0,0,1,2.76,3.73,12.74,12.74,0,0,1,1.13,5.62,14.76,14.76,0,0,1-1.43,6.83,11.84,11.84,0,0,1-4,4.45,16.53,16.53,0,0,1-6,2.41,36.16,36.16,0,0,1-7.43.72H423.37a1.7,1.7,0,0,1-1.7-1.7ZM438.49,42a12.89,12.89,0,0,0,2.79-.3,6.91,6.91,0,0,0,2.45-1.06,5.62,5.62,0,0,0,1.74-1.89,5.71,5.71,0,0,0,.64-2.86,5.52,5.52,0,0,0-.68-2.87,5.29,5.29,0,0,0-1.77-1.81,7.18,7.18,0,0,0-2.45-.94,13.94,13.94,0,0,0-2.72-.27h-7.7V42Zm.38,22.18a25.22,25.22,0,0,0,3-.19,8.91,8.91,0,0,0,3-.91A6.42,6.42,0,0,0,447.32,61a6.55,6.55,0,0,0,1-3.81,6.41,6.41,0,0,0-.95-3.66A6.82,6.82,0,0,0,445,51.34a9.64,9.64,0,0,0-3.06-1.1,17.5,17.5,0,0,0-3.09-.3h-8.08V64.2Z"/><path class="cls-1" d="M492.31,22h7.46a1.71,1.71,0,0,1,1.59,1.1l18,47.53a1.25,1.25,0,0,1-1.17,1.69h-7.54a1.7,1.7,0,0,1-1.61-1.15l-4-11.6H486.38l-4,11.6a1.7,1.7,0,0,1-1.61,1.15h-7.93a1.25,1.25,0,0,1-1.17-1.69l19-47.53A1.7,1.7,0,0,1,492.31,22Zm10.06,29.73-6.64-19.55L489,51.68Z"/><path class="cls-1" d="M537.44,22h7a1.73,1.73,0,0,1,1.41.74l23.86,35V23.65a1.7,1.7,0,0,1,1.7-1.7h5.88a1.7,1.7,0,0,1,1.7,1.7V70.57a1.7,1.7,0,0,1-1.7,1.7h-6.75a1.7,1.7,0,0,1-1.41-.74L545,36.06V70.57a1.7,1.7,0,0,1-1.7,1.7h-5.88a1.7,1.7,0,0,1-1.7-1.7V23.65A1.7,1.7,0,0,1,537.44,22Z"/><path class="cls-1" d="M90.72,32.23l-25.85,0a1.47,1.47,0,0,0-1,2.51l26.09,26a1.46,1.46,0,0,0,2.44-.62,46.88,46.88,0,0,0-.24-26.88A1.47,1.47,0,0,0,90.72,32.23Z"/><path class="cls-1" d="M88.47,67.43,70.16,49.18a1.47,1.47,0,0,0-2.5,1L67.72,87a1.47,1.47,0,0,0,2.17,1.29A47.17,47.17,0,0,0,88.74,69.15,1.46,1.46,0,0,0,88.47,67.43Z"/><path class="cls-1" d="M59.46,63.83l-26,26.09a1.47,1.47,0,0,0,.63,2.45A46.94,46.94,0,0,0,61,92.13a1.46,1.46,0,0,0,1-1.4l0-25.87A1.46,1.46,0,0,0,59.46,63.83Z"/><path class="cls-1" d="M44,67.66l-36.82.06a1.47,1.47,0,0,0-1.29,2.17A47.17,47.17,0,0,0,25.07,88.74a1.46,1.46,0,0,0,1.72-.26L45,70.16A1.46,1.46,0,0,0,44,67.66Z"/><path class="cls-1" d="M30.38,59.45l-26.09-26a1.46,1.46,0,0,0-2.44.63A46.61,46.61,0,0,0,0,47.11,47.08,47.08,0,0,0,2.09,61,1.46,1.46,0,0,0,3.5,62l25.84,0A1.47,1.47,0,0,0,30.38,59.45Z"/><path class="cls-1" d="M26.57,44,26.5,7.18a1.47,1.47,0,0,0-2.17-1.29A47.23,47.23,0,0,0,5.48,25.07a1.46,1.46,0,0,0,.27,1.72L24.06,45A1.47,1.47,0,0,0,26.57,44Z"/><path class="cls-1" d="M34.78,30.38l26-26.08a1.47,1.47,0,0,0-.63-2.45A46.73,46.73,0,0,0,47.11,0,47.27,47.27,0,0,0,33.26,2.08a1.48,1.48,0,0,0-1,1.41l0,25.85A1.47,1.47,0,0,0,34.78,30.38Z"/><path class="cls-1" d="M50.23,26.57l36.83-.07a1.47,1.47,0,0,0,1.29-2.17A47.28,47.28,0,0,0,69.15,5.48a1.46,1.46,0,0,0-1.72.27L49.19,24.06A1.47,1.47,0,0,0,50.23,26.57Z"/><path class="cls-1" d="M139.06,61.53a1.72,1.72,0,0,1,2.34,0,11.71,11.71,0,0,0,3.33,2.36,12,12,0,0,0,4.68.86,7.55,7.55,0,0,0,2.67-.49,7,7,0,0,0,2.38-1.47,7.3,7.3,0,0,0,1.7-2.45A8.67,8.67,0,0,0,156.8,57V23.65a1.7,1.7,0,0,1,1.7-1.7h6.1a1.71,1.71,0,0,1,1.71,1.7V57.48a17.66,17.66,0,0,1-1.48,7.62,13.83,13.83,0,0,1-3.81,5,14.59,14.59,0,0,1-5.28,2.72,21.68,21.68,0,0,1-5.88.83,22.28,22.28,0,0,1-9.7-1.85,18.28,18.28,0,0,1-5.41-4,1.71,1.71,0,0,1,.11-2.42Z"/><path class="cls-1" d="M198.07,50.17,181.7,23.66a1.12,1.12,0,0,1,1-1.71h7.44a1.7,1.7,0,0,1,1.46.82L203.12,42,214.7,22.77a1.7,1.7,0,0,1,1.46-.82h7a1.12,1.12,0,0,1,1,1.71L207.72,50.17v20.4a1.7,1.7,0,0,1-1.7,1.7h-6.25a1.7,1.7,0,0,1-1.7-1.7Z"/><path class="cls-1" d="M239.8,59.24a1.7,1.7,0,0,1,2.36,0c.32.33.67.68,1,1A20.77,20.77,0,0,0,246,62.5a15.77,15.77,0,0,0,3.47,1.7,13.09,13.09,0,0,0,4.34.68q4.45,0,6.6-2A6.76,6.76,0,0,0,262,55.11a5.55,5.55,0,0,0-2-2.19,16,16,0,0,0-3.73-1.7,50.55,50.55,0,0,0-5.7-1.43,20,20,0,0,1-6-2.11,15.28,15.28,0,0,1-4.18-3.4,13.47,13.47,0,0,1-2.49-4.34A14.71,14.71,0,0,1,238,29.61a12.61,12.61,0,0,1,3.25-4.6,16.18,16.18,0,0,1,5.47-3.21,22.25,22.25,0,0,1,7.73-1.21,22.78,22.78,0,0,1,6.87.91,21.07,21.07,0,0,1,4.79,2.11,14.21,14.21,0,0,1,3,2.38l.41.45a1.69,1.69,0,0,1-.11,2.37l-3.91,3.68a1.7,1.7,0,0,1-2.34,0v0a13.22,13.22,0,0,0-2.08-1.54,15.68,15.68,0,0,0-3-1.36,12,12,0,0,0-3.92-.6,9.92,9.92,0,0,0-3.4.52,7.72,7.72,0,0,0-2.37,1.36A5.4,5.4,0,0,0,247,32.7a4.77,4.77,0,0,0-.45,1.92,5.66,5.66,0,0,0,.49,2.42,5.45,5.45,0,0,0,1.66,2,11.66,11.66,0,0,0,3.21,1.62,36.12,36.12,0,0,0,5.13,1.32,28.2,28.2,0,0,1,5.65,1.81,17.53,17.53,0,0,1,4.8,3.13,14.71,14.71,0,0,1,3.32,4.68,16.13,16.13,0,0,1,1.24,6.6,13.69,13.69,0,0,1-1.36,6.11,15.3,15.3,0,0,1-3.77,4.91,17.35,17.35,0,0,1-5.73,3.28A21.7,21.7,0,0,1,254,73.63a23.7,23.7,0,0,1-6.82-.91,25.76,25.76,0,0,1-5.51-2.3,22.32,22.32,0,0,1-4.23-3c-.68-.64-1.3-1.26-1.86-1.87a1.71,1.71,0,0,1,.09-2.41Z"/><path class="cls-1" d="M348.75,22h29.19a1.7,1.7,0,0,1,1.7,1.7v5a1.7,1.7,0,0,1-1.7,1.7H356.56V42.17h15.27a1.7,1.7,0,0,1,1.7,1.7v5.05a1.7,1.7,0,0,1-1.7,1.7H356.56V63.75h23.12a1.7,1.7,0,0,1,1.7,1.7v5.12a1.7,1.7,0,0,1-1.7,1.7H348.75a1.7,1.7,0,0,1-1.7-1.7V23.65A1.7,1.7,0,0,1,348.75,22Z"/><path class="cls-1" d="M330.75,70.31,311.52,42.55,328.19,24a1.25,1.25,0,0,0-.92-2.09H320a1.68,1.68,0,0,0-1.26.56L300.65,42.62v-19A1.7,1.7,0,0,0,299,22h-6.1a1.7,1.7,0,0,0-1.7,1.7V70.57a1.7,1.7,0,0,0,1.7,1.7H299a1.7,1.7,0,0,0,1.7-1.7V54.62l4.68-5.21,14.81,22.11a1.71,1.71,0,0,0,1.41.75h8.18A1.25,1.25,0,0,0,330.75,70.31Z"/><path class="cls-1" d="M641.19,70.31,622,42.55,638.63,24A1.25,1.25,0,0,0,637.7,22h-7.22a1.68,1.68,0,0,0-1.26.56L611.09,42.62v-19a1.7,1.7,0,0,0-1.7-1.7h-6.1a1.7,1.7,0,0,0-1.7,1.7V70.57a1.7,1.7,0,0,0,1.7,1.7h6.1a1.7,1.7,0,0,0,1.7-1.7V54.62l4.68-5.21,14.81,22.11a1.68,1.68,0,0,0,1.41.75h8.17A1.25,1.25,0,0,0,641.19,70.31Z"/></svg>