<svg width="136" height="22" viewBox="0 0 136 22" fill="none" xmlns="http://www.w3.org/2000/svg">
<path fill-rule="evenodd" clip-rule="evenodd" d="M0 16.2704L0.0327395 0.197217C0.0327395 0.0328696 0.196437 0 0.196437 0H8.1194C8.2831 0 8.31584 0.164348 8.31584 0.164348L13.6851 10.2224C13.7506 10.321 13.8816 10.3539 13.9798 10.321C14.078 10.2882 14.1107 10.1238 14.1107 10.1238L13.8488 0.230087C13.8488 0.0986087 13.8816 0.0328696 13.9798 0.0328696H19.3818C19.611 0 19.6437 0.164348 19.6437 0.164348V16.2047C19.6437 16.2047 19.611 16.4348 19.4145 16.4348H11.7862C11.6225 16.4348 11.4588 16.4348 11.2951 16.1718L5.99133 6.08087C5.79489 5.81791 5.53298 6.01513 5.53298 6.31096L5.82763 16.2047C5.86037 16.3362 5.72941 16.4348 5.59846 16.4348H0.196437C0.0982185 16.4348 0 16.3362 0 16.2704ZM30.9706 10.7484L27.6639 4.30601C27.6312 4.24028 27.5657 4.14167 27.4675 4.1088H21.9673C21.933 4.1088 21.8965 4.10767 21.8593 4.10653C21.6121 4.09891 21.3339 4.09034 21.4762 4.40462L27.8276 15.8104C28.2205 16.5335 27.9913 17.1909 27.0091 17.1909H23.6042C23.4733 17.1909 23.4078 17.2566 23.3751 17.3881V20.938C23.3751 21.1352 23.5715 21.1352 23.5715 21.1352H28.6134C29.8247 21.1024 31.5272 20.5764 32.3784 19.0316L40.3014 4.27315C40.3669 4.07593 40.1704 4.07593 40.1704 4.07593H34.3428C34.2446 4.07593 34.0809 4.14167 34.0154 4.24028L31.2653 10.7156C31.298 10.7484 31.1343 11.0771 30.9706 10.7484ZM48.6506 8.61183L52.0555 4.27305C52.2192 4.1087 52.5138 4.07583 52.5138 4.07583H58.7998C59.2254 4.07583 58.8981 4.40452 58.8981 4.40452L54.7401 8.84192C54.6747 8.94052 54.6747 9.00626 54.7401 9.072L60.5023 16.1718C60.6987 16.3362 60.535 16.4348 60.4695 16.4348H53.2014C53.0028 16.4348 52.936 16.3215 52.8867 16.238C52.871 16.2113 52.8571 16.1877 52.8412 16.1718L49.3709 11.077C49.2072 10.847 49.0107 10.7155 48.5196 10.7484C48.3232 10.7484 48.3232 11.0113 48.3232 11.0113V16.2047C48.3232 16.2047 48.3232 16.4348 48.094 16.4348H42.1027C41.9717 16.4348 41.9062 16.3033 41.9062 16.2047V0.164348C41.9062 0.0657391 41.9062 0 42.1027 0H48.1595C48.1595 0 48.3232 0 48.3232 0.164348V8.44748C48.3232 8.6447 48.4214 8.80905 48.6506 8.61183ZM68.7523 16.2377V8.51332L68.7579 8.50747L68.7624 8.5023L68.7669 8.49695L68.7751 8.48692C68.8031 8.45255 68.8399 8.40732 68.916 8.38184L72.4519 6.63975C72.5828 6.57402 72.5828 6.40967 72.5828 6.40967V4.24028C72.5828 4.14167 72.4519 4.07593 72.4519 4.07593H62.5973C62.4663 4.07593 62.4336 4.27315 62.4336 4.27315V16.2377C62.4336 16.2377 62.4991 16.402 62.63 16.402H68.5886C68.7523 16.4349 68.7851 16.2377 68.7523 16.2377ZM80.8 11.143C80.6363 11.143 80.5708 11.2088 80.5708 11.3402H80.538V12.1291C80.538 12.7865 80.7017 13.2138 81.0291 13.411C81.8476 13.9041 83.8447 13.8383 84.6632 13.5754C85.187 13.3781 85.318 13.0494 85.318 12.5564C85.318 12.4907 85.4162 12.3921 85.5472 12.3921H91.5058C91.6695 12.3921 91.7022 12.5564 91.7022 12.6879C91.696 12.7364 91.6901 12.787 91.684 12.8395C91.528 14.1747 91.2295 16.7308 82.5351 16.7308C75.3325 16.7308 74.1211 14.2985 74.1211 12.4578V7.92179C74.1211 6.11397 75.267 3.58301 82.5351 3.58301C87.9044 3.58301 90.1635 4.47049 91.1784 5.81814C91.735 6.57414 91.8004 7.36301 91.8004 7.36301V10.9129C91.8004 11.0115 91.735 11.143 91.604 11.143H80.8ZM80.572 7.59294C80.6047 7.29711 80.6702 6.96842 80.8666 6.80407C81.5214 6.24529 84.5662 6.24529 85.2537 6.70546C85.5811 6.96842 85.6138 7.26424 85.6466 7.59294V8.48042C85.6466 8.57902 85.6138 8.7105 85.4501 8.7105H80.7029C80.6374 8.7105 80.5392 8.64476 80.5392 8.51329V7.59294H80.572ZM129.78 16.4022C127.488 16.4022 125.982 15.2189 125.982 12.8851H125.949V1.24931C125.982 1.11783 126.146 1.08496 126.146 1.08496H132.039C132.202 1.08496 132.235 1.24931 132.235 1.24931V3.846C132.235 3.94461 132.268 4.04322 132.399 4.07609H135.771C135.905 4.07609 135.929 4.14186 135.952 4.20178L135.952 4.2021L135.952 4.20241C135.957 4.21564 135.962 4.22857 135.968 4.24044V6.21261C135.961 6.21919 135.956 6.22708 135.949 6.23655C135.924 6.27441 135.882 6.33752 135.673 6.4427L132.366 8.08618C132.366 8.08618 132.235 8.21766 132.235 8.382V12.0634C132.235 12.7208 132.726 13.0495 133.283 13.0495H135.837C135.968 13.0495 136 13.1152 136 13.2467V16.1721C136 16.3036 135.935 16.4022 135.804 16.4022H129.78ZM111.381 0H105.554C105.554 0 105.325 0.0328695 105.325 0.230087V3.78C102.574 3.4513 98.4165 3.18835 95.7973 5.25913C94.7169 6.11373 94.5859 7.75721 94.5859 8.71043V11.7673C94.5859 12.9177 94.8479 13.7395 95.077 14.1668C96.0265 15.613 97.3033 15.9746 98.8421 16.3362C101.047 16.8392 103.328 16.6494 104.733 16.5325C105.163 16.4966 105.512 16.4676 105.75 16.4676H111.349C111.349 16.4676 111.512 16.4019 111.512 16.2704V0.164348C111.512 0.164348 111.512 0 111.381 0ZM103.587 13.5425C104.471 13.5425 105.388 13.148 105.388 12.1948V8.21759C105.388 7.26437 104.471 6.8042 103.587 6.8042H102.933C102.049 6.8042 101.132 7.26437 101.132 8.21759C101.132 8.21759 101.066 9.95968 101.066 10.1569C101.066 10.3541 101.132 12.1948 101.132 12.1948C101.132 13.1152 102.049 13.5425 102.933 13.5425H103.587ZM122.249 4.96344C122.249 4.86483 122.184 4.79909 122.086 4.79909H115.898C115.8 4.79909 115.734 4.86483 115.734 4.96344V16.2048C115.734 16.3363 115.832 16.4021 115.931 16.4021H122.053C122.151 16.4021 122.217 16.3034 122.217 16.2048V4.96344H122.249ZM122.086 0.0329608C122.184 0.0329608 122.249 0.0986999 122.249 0.197309H122.217V3.28705C122.217 3.38566 122.151 3.4514 122.053 3.4514H115.898C115.8 3.4514 115.734 3.38566 115.734 3.28705V0.197309C115.734 0.0986999 115.8 0.0329608 115.898 0.0329608H122.086Z" fill="#0F1E82"/>
</svg>
